ISO-10303-21;
HEADER;
/* Generated by software containing ST-Developer
 * from STEP Tools, Inc. (www.steptools.com) 
 */
/* OPTION: using custom renumber hook */

FILE_DESCRIPTION(
/* description */ ('STEP AP242 Edition 2',
'CAx-IF Rec.Pracs.---Representation and Presentation of Product Manufa
cturing Information (PMI)---4.0---2014-10-13',
'CAx-IF Rec.Pracs.---3D Tessellated Geometry---0.4---2014-09-14','2;1',
'CAx-IF Rec.Pracs.---User Defined Attributes---1.5---2016-08-15'),
/* implementation_level */ '2;1');

FILE_NAME(
/* name */ 'Case - Part 2',
/* time_stamp */ '2026-10-02T22:41:15Z',
/* author */ (''),
/* organization */ (''),
/* preprocessor_version */ 'ST-DEVELOPER v20',
/* originating_system */ 'ONSHAPE BY PTC INC, 1.221',
/* authorisation */ '  ');

FILE_SCHEMA (('AP242_MANAGED_MODEL_BASED_3D_ENGINEERING_MIM_LF { 1 0 10303 442 3 1 4 }'));
ENDSEC;

DATA;
#10=SHAPE_REPRESENTATION_RELATIONSHIP('','',#559,#11);
#11=ADVANCED_BREP_SHAPE_REPRESENTATION('',(#557),#943);
#12=SPHERICAL_SURFACE('',#572,0.003);
#13=SPHERICAL_SURFACE('',#574,0.003);
#14=SPHERICAL_SURFACE('',#576,0.003);
#15=SPHERICAL_SURFACE('',#579,0.003);
#16=CIRCLE('',#564,0.003);
#17=CIRCLE('',#565,0.003);
#18=CIRCLE('',#567,0.003);
#19=CIRCLE('',#568,0.003);
#20=CIRCLE('',#570,0.003);
#21=CIRCLE('',#571,0.003);
#22=CIRCLE('',#573,0.003);
#23=CIRCLE('',#575,0.003);
#24=CIRCLE('',#577,0.003);
#25=CIRCLE('',#578,0.003);
#26=CIRCLE('',#580,0.003);
#27=CIRCLE('',#581,0.003);
#28=CIRCLE('',#585,0.003);
#29=CIRCLE('',#587,0.003);
#30=CIRCLE('',#589,0.003);
#31=CIRCLE('',#591,0.003);
#32=CIRCLE('',#592,0.0015);
#33=CIRCLE('',#593,0.0015);
#34=CIRCLE('',#594,0.0015);
#35=CIRCLE('',#595,0.0015);
#36=CIRCLE('',#610,0.0015);
#37=CIRCLE('',#611,0.0015);
#38=CIRCLE('',#612,0.0015);
#39=CIRCLE('',#613,0.0015);
#40=CYLINDRICAL_SURFACE('',#563,0.003);
#41=CYLINDRICAL_SURFACE('',#566,0.003);
#42=CYLINDRICAL_SURFACE('',#569,0.003);
#43=CYLINDRICAL_SURFACE('',#582,0.003);
#44=CYLINDRICAL_SURFACE('',#584,0.003);
#45=CYLINDRICAL_SURFACE('',#586,0.003);
#46=CYLINDRICAL_SURFACE('',#588,0.003);
#47=CYLINDRICAL_SURFACE('',#596,0.003);
#48=CYLINDRICAL_SURFACE('',#614,0.0015);
#49=CYLINDRICAL_SURFACE('',#615,0.0015);
#50=CYLINDRICAL_SURFACE('',#616,0.0015);
#51=CYLINDRICAL_SURFACE('',#617,0.0015);
#52=ORIENTED_EDGE('',*,*,#204,.F.);
#53=ORIENTED_EDGE('',*,*,#205,.F.);
#54=ORIENTED_EDGE('',*,*,#206,.T.);
#55=ORIENTED_EDGE('',*,*,#207,.T.);
#56=ORIENTED_EDGE('',*,*,#208,.T.);
#57=ORIENTED_EDGE('',*,*,#209,.T.);
#58=ORIENTED_EDGE('',*,*,#210,.T.);
#59=ORIENTED_EDGE('',*,*,#211,.T.);
#60=ORIENTED_EDGE('',*,*,#212,.T.);
#61=ORIENTED_EDGE('',*,*,#213,.F.);
#62=ORIENTED_EDGE('',*,*,#214,.F.);
#63=ORIENTED_EDGE('',*,*,#208,.F.);
#64=ORIENTED_EDGE('',*,*,#215,.T.);
#65=ORIENTED_EDGE('',*,*,#210,.F.);
#66=ORIENTED_EDGE('',*,*,#216,.F.);
#67=ORIENTED_EDGE('',*,*,#217,.F.);
#68=ORIENTED_EDGE('',*,*,#218,.T.);
#69=ORIENTED_EDGE('',*,*,#211,.F.);
#70=ORIENTED_EDGE('',*,*,#219,.F.);
#71=ORIENTED_EDGE('',*,*,#220,.F.);
#72=ORIENTED_EDGE('',*,*,#218,.F.);
#73=ORIENTED_EDGE('',*,*,#221,.T.);
#74=ORIENTED_EDGE('',*,*,#212,.F.);
#75=ORIENTED_EDGE('',*,*,#222,.T.);
#76=ORIENTED_EDGE('',*,*,#219,.T.);
#77=ORIENTED_EDGE('',*,*,#215,.F.);
#78=ORIENTED_EDGE('',*,*,#214,.T.);
#79=ORIENTED_EDGE('',*,*,#223,.T.);
#80=ORIENTED_EDGE('',*,*,#224,.F.);
#81=ORIENTED_EDGE('',*,*,#216,.T.);
#82=ORIENTED_EDGE('',*,*,#225,.T.);
#83=ORIENTED_EDGE('',*,*,#226,.F.);
#84=ORIENTED_EDGE('',*,*,#224,.T.);
#85=ORIENTED_EDGE('',*,*,#227,.F.);
#86=ORIENTED_EDGE('',*,*,#225,.F.);
#87=ORIENTED_EDGE('',*,*,#209,.F.);
#88=ORIENTED_EDGE('',*,*,#228,.F.);
#89=ORIENTED_EDGE('',*,*,#229,.F.);
#90=ORIENTED_EDGE('',*,*,#227,.T.);
#91=ORIENTED_EDGE('',*,*,#230,.T.);
#92=ORIENTED_EDGE('',*,*,#231,.F.);
#93=ORIENTED_EDGE('',*,*,#232,.F.);
#94=ORIENTED_EDGE('',*,*,#226,.T.);
#95=ORIENTED_EDGE('',*,*,#229,.T.);
#96=ORIENTED_EDGE('',*,*,#233,.F.);
#97=ORIENTED_EDGE('',*,*,#230,.F.);
#98=ORIENTED_EDGE('',*,*,#223,.F.);
#99=ORIENTED_EDGE('',*,*,#234,.F.);
#100=ORIENTED_EDGE('',*,*,#235,.F.);
#101=ORIENTED_EDGE('',*,*,#236,.F.);
#102=ORIENTED_EDGE('',*,*,#221,.F.);
#103=ORIENTED_EDGE('',*,*,#237,.F.);
#104=ORIENTED_EDGE('',*,*,#238,.F.);
#105=ORIENTED_EDGE('',*,*,#239,.T.);
#106=ORIENTED_EDGE('',*,*,#240,.T.);
#107=ORIENTED_EDGE('',*,*,#231,.T.);
#108=ORIENTED_EDGE('',*,*,#228,.T.);
#109=ORIENTED_EDGE('',*,*,#233,.T.);
#110=ORIENTED_EDGE('',*,*,#241,.F.);
#111=ORIENTED_EDGE('',*,*,#235,.T.);
#112=ORIENTED_EDGE('',*,*,#242,.F.);
#113=ORIENTED_EDGE('',*,*,#243,.T.);
#114=ORIENTED_EDGE('',*,*,#244,.T.);
#115=ORIENTED_EDGE('',*,*,#245,.T.);
#116=ORIENTED_EDGE('',*,*,#246,.T.);
#117=ORIENTED_EDGE('',*,*,#205,.T.);
#118=ORIENTED_EDGE('',*,*,#247,.T.);
#119=ORIENTED_EDGE('',*,*,#248,.T.);
#120=ORIENTED_EDGE('',*,*,#249,.F.);
#121=ORIENTED_EDGE('',*,*,#250,.T.);
#122=ORIENTED_EDGE('',*,*,#239,.F.);
#123=ORIENTED_EDGE('',*,*,#251,.F.);
#124=ORIENTED_EDGE('',*,*,#222,.F.);
#125=ORIENTED_EDGE('',*,*,#252,.F.);
#126=ORIENTED_EDGE('',*,*,#251,.T.);
#127=ORIENTED_EDGE('',*,*,#238,.T.);
#128=ORIENTED_EDGE('',*,*,#237,.T.);
#129=ORIENTED_EDGE('',*,*,#220,.T.);
#130=ORIENTED_EDGE('',*,*,#240,.F.);
#131=ORIENTED_EDGE('',*,*,#252,.T.);
#132=ORIENTED_EDGE('',*,*,#217,.T.);
#133=ORIENTED_EDGE('',*,*,#232,.T.);
#134=ORIENTED_EDGE('',*,*,#236,.T.);
#135=ORIENTED_EDGE('',*,*,#241,.T.);
#136=ORIENTED_EDGE('',*,*,#234,.T.);
#137=ORIENTED_EDGE('',*,*,#213,.T.);
#138=ORIENTED_EDGE('',*,*,#253,.F.);
#139=ORIENTED_EDGE('',*,*,#254,.T.);
#140=ORIENTED_EDGE('',*,*,#255,.T.);
#141=ORIENTED_EDGE('',*,*,#207,.F.);
#142=ORIENTED_EDGE('',*,*,#256,.T.);
#143=ORIENTED_EDGE('',*,*,#257,.T.);
#144=ORIENTED_EDGE('',*,*,#247,.F.);
#145=ORIENTED_EDGE('',*,*,#258,.F.);
#146=ORIENTED_EDGE('',*,*,#255,.F.);
#147=ORIENTED_EDGE('',*,*,#259,.F.);
#148=ORIENTED_EDGE('',*,*,#260,.T.);
#149=ORIENTED_EDGE('',*,*,#258,.T.);
#150=ORIENTED_EDGE('',*,*,#204,.T.);
#151=ORIENTED_EDGE('',*,*,#254,.F.);
#152=ORIENTED_EDGE('',*,*,#261,.F.);
#153=ORIENTED_EDGE('',*,*,#262,.T.);
#154=ORIENTED_EDGE('',*,*,#259,.T.);
#155=ORIENTED_EDGE('',*,*,#253,.T.);
#156=ORIENTED_EDGE('',*,*,#206,.F.);
#157=ORIENTED_EDGE('',*,*,#263,.F.);
#158=ORIENTED_EDGE('',*,*,#264,.F.);
#159=ORIENTED_EDGE('',*,*,#261,.T.);
#160=ORIENTED_EDGE('',*,*,#246,.F.);
#161=ORIENTED_EDGE('',*,*,#265,.T.);
#162=ORIENTED_EDGE('',*,*,#266,.T.);
#163=ORIENTED_EDGE('',*,*,#263,.T.);
#164=ORIENTED_EDGE('',*,*,#267,.T.);
#165=ORIENTED_EDGE('',*,*,#268,.T.);
#166=ORIENTED_EDGE('',*,*,#244,.F.);
#167=ORIENTED_EDGE('',*,*,#269,.T.);
#168=ORIENTED_EDGE('',*,*,#270,.F.);
#169=ORIENTED_EDGE('',*,*,#271,.T.);
#170=ORIENTED_EDGE('',*,*,#242,.T.);
#171=ORIENTED_EDGE('',*,*,#272,.T.);
#172=ORIENTED_EDGE('',*,*,#249,.T.);
#173=ORIENTED_EDGE('',*,*,#273,.T.);
#174=ORIENTED_EDGE('',*,*,#274,.F.);
#175=ORIENTED_EDGE('',*,*,#275,.T.);
#176=ORIENTED_EDGE('',*,*,#274,.T.);
#177=ORIENTED_EDGE('',*,*,#276,.T.);
#178=ORIENTED_EDGE('',*,*,#256,.F.);
#179=ORIENTED_EDGE('',*,*,#260,.F.);
#180=ORIENTED_EDGE('',*,*,#262,.F.);
#181=ORIENTED_EDGE('',*,*,#264,.T.);
#182=ORIENTED_EDGE('',*,*,#266,.F.);
#183=ORIENTED_EDGE('',*,*,#277,.T.);
#184=ORIENTED_EDGE('',*,*,#267,.F.);
#185=ORIENTED_EDGE('',*,*,#278,.T.);
#186=ORIENTED_EDGE('',*,*,#270,.T.);
#187=ORIENTED_EDGE('',*,*,#279,.T.);
#188=ORIENTED_EDGE('',*,*,#276,.F.);
#189=ORIENTED_EDGE('',*,*,#273,.F.);
#190=ORIENTED_EDGE('',*,*,#248,.F.);
#191=ORIENTED_EDGE('',*,*,#257,.F.);
#192=ORIENTED_EDGE('',*,*,#277,.F.);
#193=ORIENTED_EDGE('',*,*,#265,.F.);
#194=ORIENTED_EDGE('',*,*,#245,.F.);
#195=ORIENTED_EDGE('',*,*,#268,.F.);
#196=ORIENTED_EDGE('',*,*,#278,.F.);
#197=ORIENTED_EDGE('',*,*,#269,.F.);
#198=ORIENTED_EDGE('',*,*,#243,.F.);
#199=ORIENTED_EDGE('',*,*,#271,.F.);
#200=ORIENTED_EDGE('',*,*,#279,.F.);
#201=ORIENTED_EDGE('',*,*,#272,.F.);
#202=ORIENTED_EDGE('',*,*,#250,.F.);
#203=ORIENTED_EDGE('',*,*,#275,.F.);
#204=EDGE_CURVE('',#280,#281,#326,.T.);
#205=EDGE_CURVE('',#282,#280,#327,.T.);
#206=EDGE_CURVE('',#282,#283,#328,.T.);
#207=EDGE_CURVE('',#283,#281,#329,.T.);
#208=EDGE_CURVE('',#284,#285,#330,.F.);
#209=EDGE_CURVE('',#285,#286,#331,.T.);
#210=EDGE_CURVE('',#286,#287,#332,.T.);
#211=EDGE_CURVE('',#287,#284,#333,.F.);
#212=EDGE_CURVE('',#284,#288,#16,.F.);
#213=EDGE_CURVE('',#289,#288,#334,.T.);
#214=EDGE_CURVE('',#285,#289,#17,.T.);
#215=EDGE_CURVE('',#290,#287,#18,.F.);
#216=EDGE_CURVE('',#291,#286,#19,.T.);
#217=EDGE_CURVE('',#290,#291,#335,.F.);
#218=EDGE_CURVE('',#292,#284,#20,.F.);
#219=EDGE_CURVE('',#293,#287,#21,.T.);
#220=EDGE_CURVE('',#292,#293,#336,.T.);
#221=EDGE_CURVE('',#292,#288,#22,.T.);
#222=EDGE_CURVE('',#290,#293,#23,.T.);
#223=EDGE_CURVE('',#289,#294,#24,.T.);
#224=EDGE_CURVE('',#285,#294,#25,.F.);
#225=EDGE_CURVE('',#286,#295,#26,.T.);
#226=EDGE_CURVE('',#291,#295,#27,.F.);
#227=EDGE_CURVE('',#295,#294,#337,.T.);
#228=EDGE_CURVE('',#296,#297,#338,.T.);
#229=EDGE_CURVE('',#295,#296,#339,.T.);
#230=EDGE_CURVE('',#294,#297,#340,.T.);
#231=EDGE_CURVE('',#298,#296,#28,.F.);
#232=EDGE_CURVE('',#291,#298,#341,.T.);
#233=EDGE_CURVE('',#297,#299,#29,.F.);
#234=EDGE_CURVE('',#299,#289,#342,.F.);
#235=EDGE_CURVE('',#300,#301,#30,.F.);
#236=EDGE_CURVE('',#288,#300,#343,.T.);
#237=EDGE_CURVE('',#301,#292,#344,.F.);
#238=EDGE_CURVE('',#302,#301,#345,.T.);
#239=EDGE_CURVE('',#302,#303,#31,.F.);
#240=EDGE_CURVE('',#303,#298,#346,.T.);
#241=EDGE_CURVE('',#300,#299,#347,.T.);
#242=EDGE_CURVE('',#304,#305,#348,.T.);
#243=EDGE_CURVE('',#304,#306,#32,.F.);
#244=EDGE_CURVE('',#306,#307,#349,.T.);
#245=EDGE_CURVE('',#307,#308,#33,.F.);
#246=EDGE_CURVE('',#308,#282,#350,.T.);
#247=EDGE_CURVE('',#280,#309,#351,.T.);
#248=EDGE_CURVE('',#309,#310,#34,.F.);
#249=EDGE_CURVE('',#311,#310,#352,.T.);
#250=EDGE_CURVE('',#311,#305,#35,.F.);
#251=EDGE_CURVE('',#293,#302,#353,.T.);
#252=EDGE_CURVE('',#303,#290,#354,.F.);
#253=EDGE_CURVE('',#312,#283,#355,.T.);
#254=EDGE_CURVE('',#312,#313,#356,.T.);
#255=EDGE_CURVE('',#313,#281,#357,.T.);
#256=EDGE_CURVE('',#314,#315,#358,.T.);
#257=EDGE_CURVE('',#315,#309,#359,.T.);
#258=EDGE_CURVE('',#314,#280,#360,.T.);
#259=EDGE_CURVE('',#316,#313,#361,.T.);
#260=EDGE_CURVE('',#316,#314,#362,.T.);
#261=EDGE_CURVE('',#317,#312,#363,.T.);
#262=EDGE_CURVE('',#317,#316,#364,.T.);
#263=EDGE_CURVE('',#318,#282,#365,.T.);
#264=EDGE_CURVE('',#317,#318,#366,.T.);
#265=EDGE_CURVE('',#308,#319,#367,.F.);
#266=EDGE_CURVE('',#319,#318,#368,.T.);
#267=EDGE_CURVE('',#320,#321,#369,.T.);
#268=EDGE_CURVE('',#321,#307,#370,.T.);
#269=EDGE_CURVE('',#306,#320,#371,.F.);
#270=EDGE_CURVE('',#322,#323,#372,.T.);
#271=EDGE_CURVE('',#322,#304,#373,.T.);
#272=EDGE_CURVE('',#305,#323,#374,.F.);
#273=EDGE_CURVE('',#310,#324,#375,.F.);
#274=EDGE_CURVE('',#325,#324,#376,.T.);
#275=EDGE_CURVE('',#325,#311,#377,.T.);
#276=EDGE_CURVE('',#324,#315,#36,.T.);
#277=EDGE_CURVE('',#319,#321,#37,.T.);
#278=EDGE_CURVE('',#320,#322,#38,.T.);
#279=EDGE_CURVE('',#323,#325,#39,.T.);
#280=VERTEX_POINT('',#789);
#281=VERTEX_POINT('',#790);
#282=VERTEX_POINT('',#792);
#283=VERTEX_POINT('',#794);
#284=VERTEX_POINT('',#798);
#285=VERTEX_POINT('',#799);
#286=VERTEX_POINT('',#801);
#287=VERTEX_POINT('',#803);
#288=VERTEX_POINT('',#807);
#289=VERTEX_POINT('',#809);
#290=VERTEX_POINT('',#813);
#291=VERTEX_POINT('',#815);
#292=VERTEX_POINT('',#819);
#293=VERTEX_POINT('',#821);
#294=VERTEX_POINT('',#829);
#295=VERTEX_POINT('',#833);
#296=VERTEX_POINT('',#839);
#297=VERTEX_POINT('',#840);
#298=VERTEX_POINT('',#845);
#299=VERTEX_POINT('',#849);
#300=VERTEX_POINT('',#853);
#301=VERTEX_POINT('',#854);
#302=VERTEX_POINT('',#859);
#303=VERTEX_POINT('',#861);
#304=VERTEX_POINT('',#865);
#305=VERTEX_POINT('',#866);
#306=VERTEX_POINT('',#868);
#307=VERTEX_POINT('',#870);
#308=VERTEX_POINT('',#872);
#309=VERTEX_POINT('',#875);
#310=VERTEX_POINT('',#877);
#311=VERTEX_POINT('',#879);
#312=VERTEX_POINT('',#889);
#313=VERTEX_POINT('',#891);
#314=VERTEX_POINT('',#895);
#315=VERTEX_POINT('',#896);
#316=VERTEX_POINT('',#901);
#317=VERTEX_POINT('',#905);
#318=VERTEX_POINT('',#909);
#319=VERTEX_POINT('',#913);
#320=VERTEX_POINT('',#917);
#321=VERTEX_POINT('',#918);
#322=VERTEX_POINT('',#923);
#323=VERTEX_POINT('',#924);
#324=VERTEX_POINT('',#929);
#325=VERTEX_POINT('',#931);
#326=LINE('',#788,#378);
#327=LINE('',#791,#379);
#328=LINE('',#793,#380);
#329=LINE('',#795,#381);
#330=LINE('',#797,#382);
#331=LINE('',#800,#383);
#332=LINE('',#802,#384);
#333=LINE('',#804,#385);
#334=LINE('',#808,#386);
#335=LINE('',#816,#387);
#336=LINE('',#822,#388);
#337=LINE('',#836,#389);
#338=LINE('',#838,#390);
#339=LINE('',#841,#391);
#340=LINE('',#842,#392);
#341=LINE('',#846,#393);
#342=LINE('',#850,#394);
#343=LINE('',#855,#395);
#344=LINE('',#856,#396);
#345=LINE('',#858,#397);
#346=LINE('',#862,#398);
#347=LINE('',#863,#399);
#348=LINE('',#864,#400);
#349=LINE('',#869,#401);
#350=LINE('',#873,#402);
#351=LINE('',#874,#403);
#352=LINE('',#878,#404);
#353=LINE('',#882,#405);
#354=LINE('',#883,#406);
#355=LINE('',#888,#407);
#356=LINE('',#890,#408);
#357=LINE('',#892,#409);
#358=LINE('',#894,#410);
#359=LINE('',#897,#411);
#360=LINE('',#898,#412);
#361=LINE('',#900,#413);
#362=LINE('',#902,#414);
#363=LINE('',#904,#415);
#364=LINE('',#906,#416);
#365=LINE('',#908,#417);
#366=LINE('',#910,#418);
#367=LINE('',#912,#419);
#368=LINE('',#914,#420);
#369=LINE('',#916,#421);
#370=LINE('',#919,#422);
#371=LINE('',#920,#423);
#372=LINE('',#922,#424);
#373=LINE('',#925,#425);
#374=LINE('',#926,#426);
#375=LINE('',#928,#427);
#376=LINE('',#930,#428);
#377=LINE('',#932,#429);
#378=VECTOR('',#622,1.);
#379=VECTOR('',#623,1.);
#380=VECTOR('',#624,1.);
#381=VECTOR('',#625,1.);
#382=VECTOR('',#628,1.);
#383=VECTOR('',#629,1.);
#384=VECTOR('',#630,1.);
#385=VECTOR('',#631,1.);
#386=VECTOR('',#636,1.);
#387=VECTOR('',#645,1.);
#388=VECTOR('',#652,1.);
#389=VECTOR('',#675,1.);
#390=VECTOR('',#678,1.);
#391=VECTOR('',#679,1.);
#392=VECTOR('',#680,1.);
#393=VECTOR('',#685,1.);
#394=VECTOR('',#690,1.);
#395=VECTOR('',#695,1.);
#396=VECTOR('',#696,1.);
#397=VECTOR('',#699,1.);
#398=VECTOR('',#702,1.);
#399=VECTOR('',#703,1.);
#400=VECTOR('',#704,1.);
#401=VECTOR('',#707,1.);
#402=VECTOR('',#710,1.);
#403=VECTOR('',#711,1.);
#404=VECTOR('',#714,1.);
#405=VECTOR('',#719,1.);
#406=VECTOR('',#720,1.);
#407=VECTOR('',#729,1.);
#408=VECTOR('',#730,1.);
#409=VECTOR('',#731,1.);
#410=VECTOR('',#734,1.);
#411=VECTOR('',#735,1.);
#412=VECTOR('',#736,1.);
#413=VECTOR('',#739,1.);
#414=VECTOR('',#740,1.);
#415=VECTOR('',#743,1.);
#416=VECTOR('',#744,1.);
#417=VECTOR('',#747,1.);
#418=VECTOR('',#748,1.);
#419=VECTOR('',#751,1.);
#420=VECTOR('',#752,1.);
#421=VECTOR('',#755,1.);
#422=VECTOR('',#756,1.);
#423=VECTOR('',#757,1.);
#424=VECTOR('',#760,1.);
#425=VECTOR('',#761,1.);
#426=VECTOR('',#762,1.);
#427=VECTOR('',#765,1.);
#428=VECTOR('',#766,1.);
#429=VECTOR('',#767,1.);
#430=EDGE_LOOP('',(#52,#53,#54,#55));
#431=EDGE_LOOP('',(#56,#57,#58,#59));
#432=EDGE_LOOP('',(#60,#61,#62,#63));
#433=EDGE_LOOP('',(#64,#65,#66,#67));
#434=EDGE_LOOP('',(#68,#69,#70,#71));
#435=EDGE_LOOP('',(#72,#73,#74));
#436=EDGE_LOOP('',(#75,#76,#77));
#437=EDGE_LOOP('',(#78,#79,#80));
#438=EDGE_LOOP('',(#81,#82,#83));
#439=EDGE_LOOP('',(#84,#85,#86,#87));
#440=EDGE_LOOP('',(#88,#89,#90,#91));
#441=EDGE_LOOP('',(#92,#93,#94,#95));
#442=EDGE_LOOP('',(#96,#97,#98,#99));
#443=EDGE_LOOP('',(#100,#101,#102,#103));
#444=EDGE_LOOP('',(#104,#105,#106,#107,#108,#109,#110,#111));
#445=EDGE_LOOP('',(#112,#113,#114,#115,#116,#117,#118,#119,#120,#121));
#446=EDGE_LOOP('',(#122,#123,#124,#125));
#447=EDGE_LOOP('',(#126,#127,#128,#129));
#448=EDGE_LOOP('',(#130,#131,#132,#133));
#449=EDGE_LOOP('',(#134,#135,#136,#137));
#450=EDGE_LOOP('',(#138,#139,#140,#141));
#451=EDGE_LOOP('',(#142,#143,#144,#145));
#452=EDGE_LOOP('',(#146,#147,#148,#149,#150));
#453=EDGE_LOOP('',(#151,#152,#153,#154));
#454=EDGE_LOOP('',(#155,#156,#157,#158,#159));
#455=EDGE_LOOP('',(#160,#161,#162,#163));
#456=EDGE_LOOP('',(#164,#165,#166,#167));
#457=EDGE_LOOP('',(#168,#169,#170,#171));
#458=EDGE_LOOP('',(#172,#173,#174,#175));
#459=EDGE_LOOP('',(#176,#177,#178,#179,#180,#181,#182,#183,#184,#185,#186,
#187));
#460=EDGE_LOOP('',(#188,#189,#190,#191));
#461=EDGE_LOOP('',(#192,#193,#194,#195));
#462=EDGE_LOOP('',(#196,#197,#198,#199));
#463=EDGE_LOOP('',(#200,#201,#202,#203));
#464=FACE_BOUND('',#430,.T.);
#465=FACE_BOUND('',#431,.T.);
#466=FACE_BOUND('',#432,.T.);
#467=FACE_BOUND('',#433,.T.);
#468=FACE_BOUND('',#434,.T.);
#469=FACE_BOUND('',#435,.T.);
#470=FACE_BOUND('',#436,.T.);
#471=FACE_BOUND('',#437,.T.);
#472=FACE_BOUND('',#438,.T.);
#473=FACE_BOUND('',#439,.T.);
#474=FACE_BOUND('',#440,.T.);
#475=FACE_BOUND('',#441,.T.);
#476=FACE_BOUND('',#442,.T.);
#477=FACE_BOUND('',#443,.T.);
#478=FACE_BOUND('',#444,.T.);
#479=FACE_BOUND('',#445,.T.);
#480=FACE_BOUND('',#446,.T.);
#481=FACE_BOUND('',#447,.T.);
#482=FACE_BOUND('',#448,.T.);
#483=FACE_BOUND('',#449,.T.);
#484=FACE_BOUND('',#450,.T.);
#485=FACE_BOUND('',#451,.T.);
#486=FACE_BOUND('',#452,.T.);
#487=FACE_BOUND('',#453,.T.);
#488=FACE_BOUND('',#454,.T.);
#489=FACE_BOUND('',#455,.T.);
#490=FACE_BOUND('',#456,.T.);
#491=FACE_BOUND('',#457,.T.);
#492=FACE_BOUND('',#458,.T.);
#493=FACE_BOUND('',#459,.T.);
#494=FACE_BOUND('',#460,.T.);
#495=FACE_BOUND('',#461,.T.);
#496=FACE_BOUND('',#462,.T.);
#497=FACE_BOUND('',#463,.T.);
#498=PLANE('',#561);
#499=PLANE('',#562);
#500=PLANE('',#583);
#501=PLANE('',#590);
#502=PLANE('',#597);
#503=PLANE('',#598);
#504=PLANE('',#599);
#505=PLANE('',#600);
#506=PLANE('',#601);
#507=PLANE('',#602);
#508=PLANE('',#603);
#509=PLANE('',#604);
#510=PLANE('',#605);
#511=PLANE('',#606);
#512=PLANE('',#607);
#513=PLANE('',#608);
#514=PLANE('',#609);
#515=ADVANCED_FACE('',(#464),#498,.F.);
#516=ADVANCED_FACE('',(#465),#499,.T.);
#517=ADVANCED_FACE('',(#466),#40,.T.);
#518=ADVANCED_FACE('',(#467),#41,.T.);
#519=ADVANCED_FACE('',(#468),#42,.T.);
#520=ADVANCED_FACE('',(#469),#12,.T.);
#521=ADVANCED_FACE('',(#470),#13,.T.);
#522=ADVANCED_FACE('',(#471),#14,.T.);
#523=ADVANCED_FACE('',(#472),#15,.T.);
#524=ADVANCED_FACE('',(#473),#43,.T.);
#525=ADVANCED_FACE('',(#474),#500,.T.);
#526=ADVANCED_FACE('',(#475),#44,.T.);
#527=ADVANCED_FACE('',(#476),#45,.T.);
#528=ADVANCED_FACE('',(#477),#46,.T.);
#529=ADVANCED_FACE('',(#478,#479),#501,.T.);
#530=ADVANCED_FACE('',(#480),#47,.T.);
#531=ADVANCED_FACE('',(#481),#502,.F.);
#532=ADVANCED_FACE('',(#482),#503,.T.);
#533=ADVANCED_FACE('',(#483),#504,.F.);
#534=ADVANCED_FACE('',(#484),#505,.T.);
#535=ADVANCED_FACE('',(#485),#506,.T.);
#536=ADVANCED_FACE('',(#486),#507,.T.);
#537=ADVANCED_FACE('',(#487),#508,.T.);
#538=ADVANCED_FACE('',(#488),#509,.F.);
#539=ADVANCED_FACE('',(#489),#510,.T.);
#540=ADVANCED_FACE('',(#490),#511,.T.);
#541=ADVANCED_FACE('',(#491),#512,.F.);
#542=ADVANCED_FACE('',(#492),#513,.F.);
#543=ADVANCED_FACE('',(#493),#514,.T.);
#544=ADVANCED_FACE('',(#494),#48,.T.);
#545=ADVANCED_FACE('',(#495),#49,.T.);
#546=ADVANCED_FACE('',(#496),#50,.T.);
#547=ADVANCED_FACE('',(#497),#51,.T.);
#548=CLOSED_SHELL('',(#515,#516,#517,#518,#519,#520,#521,#522,#523,#524,
#525,#526,#527,#528,#529,#530,#531,#532,#533,#534,#535,#536,#537,#538,#539,
#540,#541,#542,#543,#544,#545,#546,#547));
#549=STYLED_ITEM('',(#550),#557);
#550=PRESENTATION_STYLE_ASSIGNMENT((#551));
#551=SURFACE_STYLE_USAGE(.BOTH.,#552);
#552=SURFACE_SIDE_STYLE('',(#553));
#553=SURFACE_STYLE_FILL_AREA(#554);
#554=FILL_AREA_STYLE('',(#555));
#555=FILL_AREA_STYLE_COLOUR('',#556);
#556=COLOUR_RGB('',0.615686274509804,0.811764705882353,0.929411764705882);
#557=MANIFOLD_SOLID_BREP('Part 2',#548);
#558=SHAPE_DEFINITION_REPRESENTATION(#948,#559);
#559=SHAPE_REPRESENTATION('Part 2',(#560),#943);
#560=AXIS2_PLACEMENT_3D('',#786,#618,#619);
#561=AXIS2_PLACEMENT_3D('',#787,#620,#621);
#562=AXIS2_PLACEMENT_3D('',#796,#626,#627);
#563=AXIS2_PLACEMENT_3D('',#805,#632,#633);
#564=AXIS2_PLACEMENT_3D('',#806,#634,#635);
#565=AXIS2_PLACEMENT_3D('',#810,#637,#638);
#566=AXIS2_PLACEMENT_3D('',#811,#639,#640);
#567=AXIS2_PLACEMENT_3D('',#812,#641,#642);
#568=AXIS2_PLACEMENT_3D('',#814,#643,#644);
#569=AXIS2_PLACEMENT_3D('',#817,#646,#647);
#570=AXIS2_PLACEMENT_3D('',#818,#648,#649);
#571=AXIS2_PLACEMENT_3D('',#820,#650,#651);
#572=AXIS2_PLACEMENT_3D('',#823,#653,#654);
#573=AXIS2_PLACEMENT_3D('',#824,#655,#656);
#574=AXIS2_PLACEMENT_3D('',#825,#657,#658);
#575=AXIS2_PLACEMENT_3D('',#826,#659,#660);
#576=AXIS2_PLACEMENT_3D('',#827,#661,#662);
#577=AXIS2_PLACEMENT_3D('',#828,#663,#664);
#578=AXIS2_PLACEMENT_3D('',#830,#665,#666);
#579=AXIS2_PLACEMENT_3D('',#831,#667,#668);
#580=AXIS2_PLACEMENT_3D('',#832,#669,#670);
#581=AXIS2_PLACEMENT_3D('',#834,#671,#672);
#582=AXIS2_PLACEMENT_3D('',#835,#673,#674);
#583=AXIS2_PLACEMENT_3D('',#837,#676,#677);
#584=AXIS2_PLACEMENT_3D('',#843,#681,#682);
#585=AXIS2_PLACEMENT_3D('',#844,#683,#684);
#586=AXIS2_PLACEMENT_3D('',#847,#686,#687);
#587=AXIS2_PLACEMENT_3D('',#848,#688,#689);
#588=AXIS2_PLACEMENT_3D('',#851,#691,#692);
#589=AXIS2_PLACEMENT_3D('',#852,#693,#694);
#590=AXIS2_PLACEMENT_3D('',#857,#697,#698);
#591=AXIS2_PLACEMENT_3D('',#860,#700,#701);
#592=AXIS2_PLACEMENT_3D('',#867,#705,#706);
#593=AXIS2_PLACEMENT_3D('',#871,#708,#709);
#594=AXIS2_PLACEMENT_3D('',#876,#712,#713);
#595=AXIS2_PLACEMENT_3D('',#880,#715,#716);
#596=AXIS2_PLACEMENT_3D('',#881,#717,#718);
#597=AXIS2_PLACEMENT_3D('',#884,#721,#722);
#598=AXIS2_PLACEMENT_3D('',#885,#723,#724);
#599=AXIS2_PLACEMENT_3D('',#886,#725,#726);
#600=AXIS2_PLACEMENT_3D('',#887,#727,#728);
#601=AXIS2_PLACEMENT_3D('',#893,#732,#733);
#602=AXIS2_PLACEMENT_3D('',#899,#737,#738);
#603=AXIS2_PLACEMENT_3D('',#903,#741,#742);
#604=AXIS2_PLACEMENT_3D('',#907,#745,#746);
#605=AXIS2_PLACEMENT_3D('',#911,#749,#750);
#606=AXIS2_PLACEMENT_3D('',#915,#753,#754);
#607=AXIS2_PLACEMENT_3D('',#921,#758,#759);
#608=AXIS2_PLACEMENT_3D('',#927,#763,#764);
#609=AXIS2_PLACEMENT_3D('',#933,#768,#769);
#610=AXIS2_PLACEMENT_3D('',#934,#770,#771);
#611=AXIS2_PLACEMENT_3D('',#935,#772,#773);
#612=AXIS2_PLACEMENT_3D('',#936,#774,#775);
#613=AXIS2_PLACEMENT_3D('',#937,#776,#777);
#614=AXIS2_PLACEMENT_3D('',#938,#778,#779);
#615=AXIS2_PLACEMENT_3D('',#939,#780,#781);
#616=AXIS2_PLACEMENT_3D('',#940,#782,#783);
#617=AXIS2_PLACEMENT_3D('',#941,#784,#785);
#618=DIRECTION('',(0.,0.,1.));
#619=DIRECTION('',(1.,0.,0.));
#620=DIRECTION('',(1.27821729808817E-16,0.,-1.));
#621=DIRECTION('',(-1.,0.,-1.27821729808817E-16));
#622=DIRECTION('',(0.,1.,0.));
#623=DIRECTION('',(-1.,0.,-1.27821729808817E-16));
#624=DIRECTION('',(0.,1.,0.));
#625=DIRECTION('',(-1.,0.,-1.27821729808817E-16));
#626=DIRECTION('',(0.,1.,0.));
#627=DIRECTION('',(0.,0.,1.));
#628=DIRECTION('',(0.,0.,-1.));
#629=DIRECTION('',(1.,0.,0.));
#630=DIRECTION('',(0.,0.,-1.));
#631=DIRECTION('',(1.,0.,0.));
#632=DIRECTION('',(0.,0.,1.));
#633=DIRECTION('',(1.,0.,0.));
#634=DIRECTION('',(0.,-8.67361737988403E-16,-1.));
#635=DIRECTION('',(0.,1.,-8.67361737988403E-16));
#636=DIRECTION('',(0.,0.,-1.));
#637=DIRECTION('',(0.,0.,1.));
#638=DIRECTION('',(1.,0.,0.));
#639=DIRECTION('',(0.,0.,-1.));
#640=DIRECTION('',(-1.,0.,0.));
#641=DIRECTION('',(0.,0.,-1.));
#642=DIRECTION('',(-1.,0.,0.));
#643=DIRECTION('',(0.,0.,1.));
#644=DIRECTION('',(1.,0.,0.));
#645=DIRECTION('',(0.,0.,-1.));
#646=DIRECTION('',(-1.,0.,0.));
#647=DIRECTION('',(0.,0.,1.));
#648=DIRECTION('',(-1.,0.,0.));
#649=DIRECTION('',(0.,0.,1.));
#650=DIRECTION('',(1.,0.,0.));
#651=DIRECTION('',(0.,0.,-1.));
#652=DIRECTION('',(1.,0.,0.));
#653=DIRECTION('',(-1.,0.,8.67361737988404E-16));
#654=DIRECTION('',(8.67361737988404E-16,0.,1.));
#655=DIRECTION('',(0.,1.,0.));
#656=DIRECTION('',(0.,0.,1.));
#657=DIRECTION('',(0.,0.,-1.));
#658=DIRECTION('',(-1.,0.,0.));
#659=DIRECTION('',(0.,1.,0.));
#660=DIRECTION('',(0.,0.,1.));
#661=DIRECTION('',(-1.,0.,0.));
#662=DIRECTION('',(0.,0.,1.));
#663=DIRECTION('',(0.,1.,0.));
#664=DIRECTION('',(0.,0.,1.));
#665=DIRECTION('',(-1.,0.,0.));
#666=DIRECTION('',(0.,0.,1.));
#667=DIRECTION('',(0.,1.,0.));
#668=DIRECTION('',(0.,0.,1.));
#669=DIRECTION('',(1.,0.,0.));
#670=DIRECTION('',(0.,0.,-1.));
#671=DIRECTION('',(0.,1.,0.));
#672=DIRECTION('',(0.,0.,1.));
#673=DIRECTION('',(1.,0.,0.));
#674=DIRECTION('',(0.,0.,-1.));
#675=DIRECTION('',(-1.,0.,0.));
#676=DIRECTION('',(0.,0.,1.));
#677=DIRECTION('',(1.,0.,0.));
#678=DIRECTION('',(-1.,0.,0.));
#679=DIRECTION('',(6.67201336914157E-17,-1.,0.));
#680=DIRECTION('',(6.67201336914157E-17,-1.,0.));
#681=DIRECTION('',(-1.89242561015651E-16,-1.,0.));
#682=DIRECTION('',(1.,-1.89242561015651E-16,0.));
#683=DIRECTION('',(0.,1.,0.));
#684=DIRECTION('',(0.,0.,1.));
#685=DIRECTION('',(-1.89242561015651E-16,-1.,0.));
#686=DIRECTION('',(1.89242561015651E-16,1.,0.));
#687=DIRECTION('',(-1.,1.89242561015651E-16,0.));
#688=DIRECTION('',(0.,1.,0.));
#689=DIRECTION('',(0.,0.,1.));
#690=DIRECTION('',(-1.89242561015651E-16,-1.,0.));
#691=DIRECTION('',(-1.89242561015651E-16,-1.,0.));
#692=DIRECTION('',(1.,-1.89242561015651E-16,0.));
#693=DIRECTION('',(0.,1.,0.));
#694=DIRECTION('',(0.,0.,1.));
#695=DIRECTION('',(-1.89242561015651E-16,-1.,0.));
#696=DIRECTION('',(-1.89242561015651E-16,-1.,0.));
#697=DIRECTION('',(0.,-1.,0.));
#698=DIRECTION('',(0.,0.,-1.));
#699=DIRECTION('',(-1.,0.,0.));
#700=DIRECTION('',(0.,1.,0.));
#701=DIRECTION('',(0.,0.,1.));
#702=DIRECTION('',(0.,0.,1.));
#703=DIRECTION('',(0.,0.,1.));
#704=DIRECTION('',(-1.,0.,0.));
#705=DIRECTION('',(0.,-1.,0.));
#706=DIRECTION('',(0.,0.,-1.));
#707=DIRECTION('',(5.61853757401395E-17,0.,-1.));
#708=DIRECTION('',(0.,-1.,0.));
#709=DIRECTION('',(0.,0.,-1.));
#710=DIRECTION('',(-1.,0.,-1.27821729808817E-16));
#711=DIRECTION('',(-1.,0.,-1.27821729808817E-16));
#712=DIRECTION('',(0.,-1.,0.));
#713=DIRECTION('',(0.,0.,-1.));
#714=DIRECTION('',(5.61853757401395E-17,0.,-1.));
#715=DIRECTION('',(0.,-1.,0.));
#716=DIRECTION('',(0.,0.,-1.));
#717=DIRECTION('',(1.89242561015651E-16,1.,0.));
#718=DIRECTION('',(-1.,1.89242561015651E-16,0.));
#719=DIRECTION('',(-1.89242561015651E-16,-1.,0.));
#720=DIRECTION('',(-1.89242561015651E-16,-1.,0.));
#721=DIRECTION('',(0.,0.,1.));
#722=DIRECTION('',(1.,0.,0.));
#723=DIRECTION('',(1.,-1.89242561015651E-16,0.));
#724=DIRECTION('',(1.89242561015651E-16,1.,0.));
#725=DIRECTION('',(1.,-1.89242561015651E-16,0.));
#726=DIRECTION('',(1.89242561015651E-16,1.,0.));
#727=DIRECTION('',(0.,-1.,0.));
#728=DIRECTION('',(0.,0.,-1.));
#729=DIRECTION('',(5.90544162034658E-17,0.,-1.));
#730=DIRECTION('',(-1.,0.,0.));
#731=DIRECTION('',(0.,0.,-1.));
#732=DIRECTION('',(1.44560289664735E-16,0.,-1.));
#733=DIRECTION('',(-1.,0.,-1.44560289664735E-16));
#734=DIRECTION('',(-1.,0.,-1.44560289664735E-16));
#735=DIRECTION('',(0.,1.,0.));
#736=DIRECTION('',(0.,1.,0.));
#737=DIRECTION('',(1.,0.,0.));
#738=DIRECTION('',(0.,0.,-1.));
#739=DIRECTION('',(0.,1.,0.));
#740=DIRECTION('',(0.,0.,-1.));
#741=DIRECTION('',(0.,0.,-1.));
#742=DIRECTION('',(-1.,0.,0.));
#743=DIRECTION('',(0.,1.,0.));
#744=DIRECTION('',(-1.,0.,0.));
#745=DIRECTION('',(1.,0.,5.90544162034658E-17));
#746=DIRECTION('',(5.90544162034658E-17,0.,-1.));
#747=DIRECTION('',(0.,1.,0.));
#748=DIRECTION('',(5.90544162034658E-17,0.,-1.));
#749=DIRECTION('',(1.44560289664733E-16,0.,-1.));
#750=DIRECTION('',(-1.,0.,-1.44560289664733E-16));
#751=DIRECTION('',(0.,1.,0.));
#752=DIRECTION('',(-1.,0.,-1.44560289664733E-16));
#753=DIRECTION('',(1.,0.,5.61853757401395E-17));
#754=DIRECTION('',(5.61853757401395E-17,0.,-1.));
#755=DIRECTION('',(5.61853757401395E-17,0.,-1.));
#756=DIRECTION('',(0.,1.,0.));
#757=DIRECTION('',(0.,1.,0.));
#758=DIRECTION('',(0.,0.,-1.));
#759=DIRECTION('',(-1.,0.,0.));
#760=DIRECTION('',(-1.,0.,0.));
#761=DIRECTION('',(0.,1.,0.));
#762=DIRECTION('',(0.,1.,0.));
#763=DIRECTION('',(1.,0.,5.61853757401395E-17));
#764=DIRECTION('',(5.61853757401395E-17,0.,-1.));
#765=DIRECTION('',(0.,1.,0.));
#766=DIRECTION('',(5.61853757401395E-17,0.,-1.));
#767=DIRECTION('',(0.,1.,0.));
#768=DIRECTION('',(0.,-1.,0.));
#769=DIRECTION('',(1.,0.,0.));
#770=DIRECTION('',(0.,-1.,0.));
#771=DIRECTION('',(0.,0.,-1.));
#772=DIRECTION('',(0.,-1.,0.));
#773=DIRECTION('',(0.,0.,-1.));
#774=DIRECTION('',(0.,-1.,0.));
#775=DIRECTION('',(0.,0.,-1.));
#776=DIRECTION('',(0.,-1.,0.));
#777=DIRECTION('',(0.,0.,-1.));
#778=DIRECTION('',(0.,-1.,0.));
#779=DIRECTION('',(0.,0.,-1.));
#780=DIRECTION('',(0.,1.,0.));
#781=DIRECTION('',(0.,0.,1.));
#782=DIRECTION('',(0.,-1.,0.));
#783=DIRECTION('',(0.,0.,-1.));
#784=DIRECTION('',(0.,1.,0.));
#785=DIRECTION('',(0.,0.,1.));
#786=CARTESIAN_POINT('',(0.,0.,0.));
#787=CARTESIAN_POINT('',(-3.46944695195361E-18,0.045713,0.00325));
#788=CARTESIAN_POINT('',(-0.02375,0.037,0.00325));
#789=CARTESIAN_POINT('',(-0.02375,0.045715,0.00325));
#790=CARTESIAN_POINT('',(-0.02375,0.052,0.00325));
#791=CARTESIAN_POINT('',(-3.46944695195361E-18,0.045715,0.00325));
#792=CARTESIAN_POINT('',(0.02375,0.045715,0.00325));
#793=CARTESIAN_POINT('',(0.02375,0.037,0.00325));
#794=CARTESIAN_POINT('',(0.02375,0.052,0.00325));
#795=CARTESIAN_POINT('',(-3.46944695195361E-18,0.052,0.00325));
#796=CARTESIAN_POINT('',(1.04083408558608E-17,0.055,0.13));
#797=CARTESIAN_POINT('',(-0.027,0.055,0.13));
#798=CARTESIAN_POINT('',(-0.027,0.055,0.003));
#799=CARTESIAN_POINT('',(-0.027,0.055,0.127));
#800=CARTESIAN_POINT('',(1.04083408558608E-17,0.055,0.127));
#801=CARTESIAN_POINT('',(0.027,0.055,0.127));
#802=CARTESIAN_POINT('',(0.027,0.055,0.13));
#803=CARTESIAN_POINT('',(0.027,0.055,0.003));
#804=CARTESIAN_POINT('',(-0.03,0.055,0.003));
#805=CARTESIAN_POINT('',(-0.027,0.052,0.13));
#806=CARTESIAN_POINT('',(-0.027,0.052,0.003));
#807=CARTESIAN_POINT('',(-0.03,0.052,0.003));
#808=CARTESIAN_POINT('',(-0.03,0.052,0.));
#809=CARTESIAN_POINT('',(-0.03,0.052,0.127));
#810=CARTESIAN_POINT('',(-0.027,0.052,0.127));
#811=CARTESIAN_POINT('',(0.027,0.052,0.13));
#812=CARTESIAN_POINT('',(0.027,0.052,0.003));
#813=CARTESIAN_POINT('',(0.03,0.052,0.003));
#814=CARTESIAN_POINT('',(0.027,0.052,0.127));
#815=CARTESIAN_POINT('',(0.03,0.052,0.127));
#816=CARTESIAN_POINT('',(0.03,0.052,0.13));
#817=CARTESIAN_POINT('',(0.,0.052,0.003));
#818=CARTESIAN_POINT('',(-0.027,0.052,0.003));
#819=CARTESIAN_POINT('',(-0.027,0.052,0.));
#820=CARTESIAN_POINT('',(0.027,0.052,0.003));
#821=CARTESIAN_POINT('',(0.027,0.052,0.));
#822=CARTESIAN_POINT('',(0.03,0.052,0.));
#823=CARTESIAN_POINT('',(-0.027,0.052,0.003));
#824=CARTESIAN_POINT('',(-0.027,0.052,0.003));
#825=CARTESIAN_POINT('',(0.027,0.052,0.003));
#826=CARTESIAN_POINT('',(0.027,0.052,0.003));
#827=CARTESIAN_POINT('',(-0.027,0.052,0.127));
#828=CARTESIAN_POINT('',(-0.027,0.052,0.127));
#829=CARTESIAN_POINT('',(-0.027,0.052,0.13));
#830=CARTESIAN_POINT('',(-0.027,0.052,0.127));
#831=CARTESIAN_POINT('',(0.027,0.052,0.127));
#832=CARTESIAN_POINT('',(0.027,0.052,0.127));
#833=CARTESIAN_POINT('',(0.027,0.052,0.13));
#834=CARTESIAN_POINT('',(0.027,0.052,0.127));
#835=CARTESIAN_POINT('',(1.04083408558608E-17,0.052,0.127));
#836=CARTESIAN_POINT('',(-3.46944695195361E-18,0.052,0.13));
#837=CARTESIAN_POINT('',(0.,0.,0.13));
#838=CARTESIAN_POINT('',(0.,0.045715,0.13));
#839=CARTESIAN_POINT('',(0.027,0.045715,0.13));
#840=CARTESIAN_POINT('',(-0.027,0.045715,0.13));
#841=CARTESIAN_POINT('',(0.027,0.,0.13));
#842=CARTESIAN_POINT('',(-0.027,0.,0.13));
#843=CARTESIAN_POINT('',(0.027,5.67727683046955E-19,0.127));
#844=CARTESIAN_POINT('',(0.027,0.045715,0.127));
#845=CARTESIAN_POINT('',(0.03,0.045715,0.127));
#846=CARTESIAN_POINT('',(0.03,0.,0.127));
#847=CARTESIAN_POINT('',(-0.027,5.1095491474226E-18,0.127));
#848=CARTESIAN_POINT('',(-0.027,0.045715,0.127));
#849=CARTESIAN_POINT('',(-0.03,0.045715,0.127));
#850=CARTESIAN_POINT('',(-0.03,0.055,0.127));
#851=CARTESIAN_POINT('',(-0.027,-5.67727683046955E-19,0.003));
#852=CARTESIAN_POINT('',(-0.027,0.045715,0.003));
#853=CARTESIAN_POINT('',(-0.03,0.045715,0.003));
#854=CARTESIAN_POINT('',(-0.027,0.045715,2.60208521396521E-18));
#855=CARTESIAN_POINT('',(-0.03,0.,0.003));
#856=CARTESIAN_POINT('',(-0.027,5.1095491474226E-18,0.));
#857=CARTESIAN_POINT('',(-0.0147466809073091,0.045715,0.003));
#858=CARTESIAN_POINT('',(-0.0147466809073091,0.045715,0.));
#859=CARTESIAN_POINT('',(0.027,0.045715,0.));
#860=CARTESIAN_POINT('',(0.027,0.045715,0.003));
#861=CARTESIAN_POINT('',(0.03,0.045715,0.003));
#862=CARTESIAN_POINT('',(0.03,0.045715,0.13));
#863=CARTESIAN_POINT('',(-0.03,0.045715,0.13));
#864=CARTESIAN_POINT('',(1.04083408558608E-17,0.045715,0.12675));
#865=CARTESIAN_POINT('',(0.02525,0.045715,0.12675));
#866=CARTESIAN_POINT('',(-0.02525,0.045715,0.12675));
#867=CARTESIAN_POINT('',(0.02525,0.045715,0.12525));
#868=CARTESIAN_POINT('',(0.02675,0.045715,0.12525));
#869=CARTESIAN_POINT('',(0.02675,0.045715,0.065));
#870=CARTESIAN_POINT('',(0.02675,0.045715,0.00475));
#871=CARTESIAN_POINT('',(0.02525,0.045715,0.00475));
#872=CARTESIAN_POINT('',(0.02525,0.045715,0.00325));
#873=CARTESIAN_POINT('',(-3.46944695195361E-18,0.045715,0.00325));
#874=CARTESIAN_POINT('',(-3.46944695195361E-18,0.045715,0.00325));
#875=CARTESIAN_POINT('',(-0.02525,0.045715,0.00325));
#876=CARTESIAN_POINT('',(-0.02525,0.045715,0.00475));
#877=CARTESIAN_POINT('',(-0.02675,0.045715,0.00475));
#878=CARTESIAN_POINT('',(-0.02675,0.045715,0.065));
#879=CARTESIAN_POINT('',(-0.02675,0.045715,0.12525));
#880=CARTESIAN_POINT('',(-0.02525,0.045715,0.12525));
#881=CARTESIAN_POINT('',(0.027,-5.1095491474226E-18,0.003));
#882=CARTESIAN_POINT('',(0.027,-0.055,0.));
#883=CARTESIAN_POINT('',(0.03,0.055,0.003));
#884=CARTESIAN_POINT('',(0.,0.,0.));
#885=CARTESIAN_POINT('',(0.03,0.,0.13));
#886=CARTESIAN_POINT('',(-0.03,0.,0.13));
#887=CARTESIAN_POINT('',(-3.46944695195361E-18,0.052,0.13));
#888=CARTESIAN_POINT('',(0.02375,0.052,0.065));
#889=CARTESIAN_POINT('',(0.02375,0.052,0.12375));
#890=CARTESIAN_POINT('',(-1.04083408558608E-17,0.052,0.12375));
#891=CARTESIAN_POINT('',(-0.02375,0.052,0.12375));
#892=CARTESIAN_POINT('',(-0.02375,0.052,0.00475));
#893=CARTESIAN_POINT('',(-0.02525,0.037,0.00325));
#894=CARTESIAN_POINT('',(-0.02525,0.037,0.00325));
#895=CARTESIAN_POINT('',(-0.02375,0.037,0.00325));
#896=CARTESIAN_POINT('',(-0.02525,0.037,0.00325));
#897=CARTESIAN_POINT('',(-0.02525,0.045715,0.00325));
#898=CARTESIAN_POINT('',(-0.02375,0.037,0.00325));
#899=CARTESIAN_POINT('',(-0.02375,0.037,0.00475));
#900=CARTESIAN_POINT('',(-0.02375,0.037,0.12375));
#901=CARTESIAN_POINT('',(-0.02375,0.037,0.12375));
#902=CARTESIAN_POINT('',(-0.02375,0.037,0.00475));
#903=CARTESIAN_POINT('',(-1.04083408558608E-17,0.037,0.12375));
#904=CARTESIAN_POINT('',(0.02375,0.037,0.12375));
#905=CARTESIAN_POINT('',(0.02375,0.037,0.12375));
#906=CARTESIAN_POINT('',(-1.04083408558608E-17,0.037,0.12375));
#907=CARTESIAN_POINT('',(0.02375,0.037,0.065));
#908=CARTESIAN_POINT('',(0.02375,0.037,0.00325));
#909=CARTESIAN_POINT('',(0.02375,0.037,0.00325));
#910=CARTESIAN_POINT('',(0.02375,0.037,0.065));
#911=CARTESIAN_POINT('',(0.02525,0.037,0.00325));
#912=CARTESIAN_POINT('',(0.02525,0.037,0.00325));
#913=CARTESIAN_POINT('',(0.02525,0.037,0.00325));
#914=CARTESIAN_POINT('',(0.02525,0.037,0.00325));
#915=CARTESIAN_POINT('',(0.02675,0.037,0.065));
#916=CARTESIAN_POINT('',(0.02675,0.037,0.065));
#917=CARTESIAN_POINT('',(0.02675,0.037,0.12525));
#918=CARTESIAN_POINT('',(0.02675,0.037,0.00475));
#919=CARTESIAN_POINT('',(0.02675,0.037,0.00475));
#920=CARTESIAN_POINT('',(0.02675,0.037,0.12525));
#921=CARTESIAN_POINT('',(1.04083408558608E-17,0.037,0.12675));
#922=CARTESIAN_POINT('',(1.04083408558608E-17,0.037,0.12675));
#923=CARTESIAN_POINT('',(0.02525,0.037,0.12675));
#924=CARTESIAN_POINT('',(-0.02525,0.037,0.12675));
#925=CARTESIAN_POINT('',(0.02525,0.045715,0.12675));
#926=CARTESIAN_POINT('',(-0.02525,0.037,0.12675));
#927=CARTESIAN_POINT('',(-0.02675,0.037,0.065));
#928=CARTESIAN_POINT('',(-0.02675,0.037,0.00475));
#929=CARTESIAN_POINT('',(-0.02675,0.037,0.00475));
#930=CARTESIAN_POINT('',(-0.02675,0.037,0.065));
#931=CARTESIAN_POINT('',(-0.02675,0.037,0.12525));
#932=CARTESIAN_POINT('',(-0.02675,0.037,0.12525));
#933=CARTESIAN_POINT('',(-3.46944695195361E-18,0.037,0.065));
#934=CARTESIAN_POINT('',(-0.02525,0.037,0.00475));
#935=CARTESIAN_POINT('',(0.02525,0.037,0.00475));
#936=CARTESIAN_POINT('',(0.02525,0.037,0.12525));
#937=CARTESIAN_POINT('',(-0.02525,0.037,0.12525));
#938=CARTESIAN_POINT('',(-0.02525,0.037,0.00475));
#939=CARTESIAN_POINT('',(0.02525,0.037,0.00475));
#940=CARTESIAN_POINT('',(0.02525,0.037,0.12525));
#941=CARTESIAN_POINT('',(-0.02525,0.037,0.12525));
#942=MECHANICAL_DESIGN_GEOMETRIC_PRESENTATION_REPRESENTATION('',(#549),
#943);
#943=(
GEOMETRIC_REPRESENTATION_CONTEXT(3)
GLOBAL_UNCERTAINTY_ASSIGNED_CONTEXT((#944))
GLOBAL_UNIT_ASSIGNED_CONTEXT((#947,#946,#945))
REPRESENTATION_CONTEXT('Part 2','TOP_LEVEL_ASSEMBLY_PART')
);
#944=UNCERTAINTY_MEASURE_WITH_UNIT(LENGTH_MEASURE(1.E-8),#947,
'DISTANCE_ACCURACY_VALUE','Maximum Tolerance applied to model');
#945=(
NAMED_UNIT(*)
SI_UNIT($,.STERADIAN.)
SOLID_ANGLE_UNIT()
);
#946=(
NAMED_UNIT(*)
PLANE_ANGLE_UNIT()
SI_UNIT($,.RADIAN.)
);
#947=(
LENGTH_UNIT()
NAMED_UNIT(*)
SI_UNIT($,.METRE.)
);
#948=PRODUCT_DEFINITION_SHAPE('','',#949);
#949=PRODUCT_DEFINITION('','',#951,#950);
#950=PRODUCT_DEFINITION_CONTEXT('',#957,'design');
#951=PRODUCT_DEFINITION_FORMATION_WITH_SPECIFIED_SOURCE('','',#953,
 .NOT_KNOWN.);
#952=PRODUCT_RELATED_PRODUCT_CATEGORY('','',(#953));
#953=PRODUCT('Part 2','Part 2','Part 2',(#955));
#954=PRODUCT_CATEGORY('','');
#955=PRODUCT_CONTEXT('',#957,'mechanical');
#956=APPLICATION_PROTOCOL_DEFINITION('international standard',
'ap242_managed_model_based_3d_engineering',2020,#957);
#957=APPLICATION_CONTEXT('managed model based 3d engineering');
ENDSEC;
END-ISO-10303-21;
